# xmcd
#
# Track frame offsets:
#	150
#	12504
#	25922
#	42620
#	58370
#	72845
#	86653
#	102296
#	119366
#	131152
#
# Disc length: 1943 seconds
#
# Revision: 0
# Processed by: cddbd v1.5.2PL0 Copyright (c) Steve Scherf et al.
# Submitted via: EasyCDDAExtractor 10.2.0.1
#
DISCID=9207950a
DTITLE=Gary Presson - God Don't Go Out of Business
DYEAR=1999
DGENRE=Gospel
TTITLE0=The Prayer
TTITLE1=I Want To Thank You Lord
TTITLE2=Have I Told You Lord
TTITLE3=God Don't Go Out Of Business
TTITLE4=Shadow Of A Fool
TTITLE5=Get Behind Me Devil
TTITLE6=Take me Home
TTITLE7=Every Day Would Be Christmas Day
TTITLE8=All The Way
TTITLE9=He Will Stand By Me
EXTD=
EXTT0=
EXTT1=
EXTT2=
EXTT3=
EXTT4=
EXTT5=
EXTT6=
EXTT7=
EXTT8=
EXTT9=
PLAYORDER=
